<?xml version="1.0" encoding="iso-8859-1"?>
<!-- Generator: Adobe Illustrator 19.0.0, SVG Export Plug-In . SVG Version: 6.00 Build 0)  -->
<svg version="1.1" id="Layer_1" xmlns="http://www.w3.org/2000/svg" xmlns:xlink="http://www.w3.org/1999/xlink" x="0px" y="0px"
	 viewBox="0 0 501.551 501.551" style="enable-background:new 0 0 501.551 501.551;" xml:space="preserve">
<path style="fill:#FFD15C;" d="M474.384,190.105c-1.045-3.135-1.045-5.224-2.09-8.359c-12.539-39.706-47.02-71.053-89.861-79.412
	c-87.771-16.718-175.543-16.718-263.314,0c-42.841,8.359-78.367,38.661-89.861,79.412c-1.045,3.135-2.09,5.224-2.09,8.359
	c-10.449,40.751-10.449,81.502,0,121.208c1.045,3.135,1.045,5.224,2.09,8.359c11.494,40.751,47.02,71.053,89.861,79.412
	c86.727,16.718,172.408,16.718,259.135,1.045c45.976-8.359,83.592-40.751,95.086-84.637c0-1.045,1.045-2.09,1.045-4.18
	C485.878,270.562,485.878,230.856,474.384,190.105z"/>
<path style="fill:#F8B64C;" d="M452.441,315.492H49.11c-8.359,0-15.673-1.045-21.943-4.18c-10.449-40.751-10.449-81.502,0-121.208
	c7.314-3.135,14.629-4.18,21.943-4.18h403.331c8.359,0,15.673,1.045,21.943,4.18c10.449,40.751,10.449,80.457,0,121.208
	C468.114,314.447,460.8,315.492,452.441,315.492z"/>
<path style="fill:#FF7058;" d="M500.506,243.394c-3.135-24.033-24.033-41.796-48.065-41.796H49.11
	c-25.078,0-44.931,17.763-48.065,41.796c0,2.09-1.045,5.224-1.045,7.314c0,13.584,5.224,25.078,13.584,34.482
	c9.404,9.404,21.943,14.629,35.527,14.629h403.331c13.584,0,26.122-5.224,34.482-14.629c0,0,0,0,1.045-1.045
	c8.359-9.404,13.584-20.898,13.584-34.482C501.551,248.619,501.551,245.484,500.506,243.394z"/>
<path style="fill:#ED5E4F;" d="M19.853,259.068L19.853,259.068c11.494,0,21.943-6.269,30.302-13.584
	c12.539-11.494,29.257-18.808,45.976-18.808c17.763,0,35.527,7.314,48.065,19.853c7.314,7.314,17.763,12.539,29.257,12.539
	c11.494,0,21.943-4.18,29.257-12.539c26.122-26.122,68.963-26.122,96.131,0c7.314,8.359,17.763,12.539,29.257,12.539
	s21.943-4.18,29.257-12.539c19.853-19.853,49.11-26.122,77.322-13.584c7.314,3.135,12.539,8.359,18.808,13.584
	c7.314,7.314,17.763,11.494,27.167,12.539c9.404,0,14.629,9.404,10.449,17.763c0,1.045-1.045,1.045-1.045,2.09
	c-2.09,4.18-7.314,6.269-11.494,6.269c-16.718-1.045-31.347-8.359-42.841-19.853c-6.269-6.269-14.629-10.449-22.988-11.494
	c-13.584-2.09-26.122,2.09-35.527,11.494c-5.224,5.224-11.494,10.449-17.763,13.584c-28.212,12.539-57.469,6.269-77.322-13.584
	c-7.314-7.314-17.763-12.539-29.257-12.539c-11.494,0-21.943,4.18-30.302,12.539c-26.122,26.122-68.963,26.122-96.131,0
	c-9.404-9.404-21.943-13.584-34.482-11.494c-9.404,1.045-17.763,5.224-24.033,11.494c-11.494,11.494-26.122,18.808-42.841,19.853
	c-5.224,0-9.404-2.09-12.539-6.269c-1.045-1.045-1.045-3.135-2.09-4.18C6.269,267.427,11.494,259.068,19.853,259.068z"/>
<path style="fill:#FFFFFF;" d="M19.853,253.843L19.853,253.843c11.494,0,21.943-6.269,30.302-13.584
	c12.539-11.494,29.257-18.808,45.976-18.808c17.763,0,35.527,7.314,48.065,19.853c7.314,7.314,17.763,12.539,29.257,12.539
	c11.494,0,21.943-4.18,29.257-12.539c26.122-26.122,68.963-26.122,96.131,0c7.314,8.359,17.763,12.539,29.257,12.539
	s21.943-4.18,29.257-12.539c19.853-19.853,49.11-26.122,77.322-13.584c7.314,3.135,12.539,8.359,18.808,13.584
	c7.314,7.314,17.763,11.494,27.167,12.539c9.404,0,14.629,9.404,10.449,17.763c0,1.045-1.045,1.045-1.045,2.09
	c-2.09,4.18-7.314,6.269-11.494,6.269c-16.718-1.045-31.347-8.359-42.841-19.853c-6.269-6.269-14.629-10.449-22.988-11.494
	c-13.584-2.09-26.122,2.09-35.527,11.494c-5.224,5.225-11.494,10.449-17.763,13.584c-28.212,12.539-57.469,6.269-77.322-13.584
	c-7.314-7.314-17.763-12.539-29.257-12.539c-11.494,0-21.943,4.18-30.302,12.539c-26.122,26.122-68.963,26.122-96.131,0
	c-9.404-9.404-21.943-13.584-34.482-11.494c-9.404,1.045-17.763,5.224-24.033,11.494c-11.494,11.494-26.122,18.808-42.841,19.853
	c-5.224,0-9.404-2.09-12.539-6.269c-1.045-1.045-1.045-3.135-2.09-4.18C6.269,262.202,11.494,253.843,19.853,253.843z"/>
<g>
	<path style="fill:#F2F2F2;" d="M195.396,135.77c-1.045-1.045-3.135-1.045-5.224,0c-1.045,1.045-1.045,3.135,0,5.224l7.314,7.314
		c1.045,1.045,1.045,1.045,2.09,1.045s2.09,0,2.09-1.045c1.045-1.045,1.045-3.135,0-5.224L195.396,135.77z"/>
	<path style="fill:#F2F2F2;" d="M429.453,161.892l-7.314,7.314c-1.045,1.045-1.045,3.135,0,5.224
		c1.045,1.045,1.045,1.045,2.09,1.045c1.045,0,2.09,0,2.09-1.045l7.314-7.314c1.045-1.045,1.045-3.135,0-5.224
		C432.588,159.802,430.498,159.802,429.453,161.892z"/>
	<path style="fill:#F2F2F2;" d="M74.188,156.668l-7.314,7.314c-1.045,1.045-1.045,3.135,0,5.225c1.045,1.045,1.045,1.045,2.09,1.045
		s2.09,0,2.09-1.045l7.314-7.314c1.045-1.045,1.045-3.135,0-5.224C77.322,155.623,75.233,155.623,74.188,156.668z"/>
	<path style="fill:#F2F2F2;" d="M312.424,128.456c-1.045-1.045-3.135-1.045-5.224,0l-7.314,7.314c-1.045,1.045-1.045,3.135,0,5.224
		c1.045,1.045,1.045,1.045,2.09,1.045c1.045,0,2.09,0,2.09-1.045l7.314-7.314C314.514,132.635,314.514,130.545,312.424,128.456z"/>
	<path style="fill:#F2F2F2;" d="M119.118,357.288c-1.045,1.045-3.135,1.045-5.224,0c-1.045-1.045-1.045-3.135,0-5.224l7.314-7.314
		c1.045-1.045,1.045-1.045,2.09-1.045c1.045,0,2.09,0,2.09,1.045c1.045,1.045,1.045,3.135,0,5.224L119.118,357.288z"/>
	<path style="fill:#F2F2F2;" d="M429.453,339.525l-7.314-7.314c-1.045-1.045-1.045-3.135,0-5.224
		c1.045-1.045,1.045-1.045,2.09-1.045c1.045,0,2.09,0,2.09,1.045l7.314,7.314c1.045,1.045,1.045,3.135,0,5.224
		C432.588,340.57,430.498,340.57,429.453,339.525z"/>
	<path style="fill:#F2F2F2;" d="M257.045,353.109c1.045,1.045,1.045,3.135,0,5.224c-1.045,1.045-3.135,1.045-5.224,0l-7.314-8.359
		c-1.045-1.045-1.045-3.135,0-5.224c1.045-1.045,1.045-1.045,2.09-1.045s2.09,0,2.09,1.045L257.045,353.109z"/>
	<path style="fill:#F2F2F2;" d="M353.176,379.231c-1.045,1.045-3.135,1.045-5.224,0l-7.314-7.314c-1.045-1.045-1.045-3.135,0-5.224
		c1.045-1.045,1.045-1.045,2.09-1.045s2.09,0,2.09,1.045l7.314,7.314C355.265,376.096,355.265,378.186,353.176,379.231z"/>
</g>
<g>
</g>
<g>
</g>
<g>
</g>
<g>
</g>
<g>
</g>
<g>
</g>
<g>
</g>
<g>
</g>
<g>
</g>
<g>
</g>
<g>
</g>
<g>
</g>
<g>
</g>
<g>
</g>
<g>
</g>
</svg>
